<svg width="22" height="19" viewBox="0 0 22 19" fill="none" xmlns="http://www.w3.org/2000/svg">
<path d="M9.10916 1.48589C9.72878 -0.311817 12.2712 -0.31182 12.8908 1.48589L13.9583 4.58283C14.2364 5.38964 14.9957 5.93112 15.8491 5.93112H19.0405C21.0064 5.93112 21.7926 8.47032 20.1707 9.5812L17.7958 11.2078C17.0531 11.7164 16.7418 12.6586 17.0351 13.5096L17.9894 16.2784C18.6174 18.1005 16.5585 19.6693 14.9684 18.5802L12.1301 16.6363C11.4489 16.1697 10.5511 16.1697 9.86985 16.6363L7.03156 18.5802C5.44151 19.6693 3.38256 18.1005 4.01057 16.2784L4.96492 13.5096C5.25825 12.6586 4.9469 11.7164 4.20423 11.2078L1.82933 9.5812C0.207381 8.47032 0.993573 5.93112 2.95948 5.93112H6.1509C7.00427 5.93112 7.76365 5.38964 8.04173 4.58284L9.10916 1.48589Z" fill="#FFB800"/>
</svg>
